<svg width="16" height="21" viewBox="0 0 16 21" fill="none" xmlns="http://www.w3.org/2000/svg">
<path d="M2.58333 18.5835C1.39166 18.5835 0.416664 19.5585 0.416664 20.7501H15.5833C15.5833 19.5585 14.6083 18.5835 13.4167 18.5835H9.08333V16.4168H12.3333C13.525 16.4168 14.5 15.4418 14.5 14.2501H5.83333C4.035 14.2501 2.58333 12.7985 2.58333 11.0001C2.58333 9.81928 3.2225 8.79012 4.165 8.22678C3.85083 7.78262 3.66666 7.25178 3.66666 6.66678C3.66666 6.43928 3.71 6.21178 3.76416 5.99512C1.80333 6.80762 0.416664 8.74678 0.416664 11.0001C0.416664 13.9901 2.84333 16.4168 5.83333 16.4168V18.5835H2.58333Z" fill="white"/>
<path d="M6.44 3.96925C7.9025 4.00175 9.08333 5.19341 9.08333 6.66675C9.08333 7.47925 8.72583 8.19425 8.16249 8.69258L8.80166 10.4476L9.82 10.0792L10.1883 11.0976L12.225 10.3609L11.8567 9.34258L12.875 8.97425L9.90666 0.816748L8.88833 1.18508L8.51999 0.166748L6.48333 0.903415L6.85166 1.92175L5.83333 2.30091L6.44 3.96925Z" fill="white"/>
<path d="M6.375 8.29175C7.27246 8.29175 8 7.56421 8 6.66675C8 5.76929 7.27246 5.04175 6.375 5.04175C5.47754 5.04175 4.75 5.76929 4.75 6.66675C4.75 7.56421 5.47754 8.29175 6.375 8.29175Z" fill="white"/>
</svg>
