<svg width="22" height="22" viewBox="0 0 22 22" fill="none" xmlns="http://www.w3.org/2000/svg">
<path d="M11 0.166748C5.03082 0.166748 0.166656 5.03091 0.166656 11.0001C0.166656 16.9692 5.03082 21.8334 11 21.8334C16.9692 21.8334 21.8333 16.9692 21.8333 11.0001C21.8333 5.03091 16.9692 0.166748 11 0.166748ZM11 19.6667C6.22249 19.6667 2.33332 15.7776 2.33332 11.0001C2.33332 6.22258 6.22249 2.33341 11 2.33341C15.7775 2.33341 19.6667 6.22258 19.6667 11.0001C19.6667 15.7776 15.7775 19.6667 11 19.6667ZM14.25 11.0001C14.25 12.7984 12.7983 14.2501 11 14.2501C9.20166 14.2501 7.74999 12.7984 7.74999 11.0001C7.74999 9.20175 9.20166 7.75008 11 7.75008C12.7983 7.75008 14.25 9.20175 14.25 11.0001Z" fill="white"/>
</svg>
